<?xml version="1.0" encoding="utf-8"?>
<svg xmlns="http://www.w3.org/2000/svg" xmlns:xlink="http://www.w3.org/1999/xlink" style="margin: auto; background: none; display: block; z-index: 1; position: relative; shape-rendering: auto;" preserveAspectRatio="xMidYMid" viewBox="0 0 1920 1080">
<g transform="translate(960,540) scale(1,1) translate(-960,-540)"><path d="M-100 802.72C51.44 809 55.82 790.32 202.86 790.32S357.17 830.72 505.71 830.72S659.54 771.97 808.57 771.97S966.83 760.44 1111.43 760.44S1270.73 760.3 1414.29 760.3S1567.41 793.68 1717.14 793.68S1869.66 825.48 2020 825.48S2175.06 780.22 2322.86 780.22L2020 1080 L-100 1080 Z" fill="#74767b" stroke-width="0">
  <animate attributeName="d" dur="19.999999999999996s" repeatCount="indefinite" values="M-100 802.72C51.44 809 55.82 790.32 202.86 790.32S357.17 830.72 505.71 830.72S659.54 771.97 808.57 771.97S966.83 760.44 1111.43 760.44S1270.73 760.3 1414.29 760.3S1567.41 793.68 1717.14 793.68S1869.66 825.48 2020 825.48S2175.06 780.22 2322.86 780.22L2020 1080 L-100 1080 Z;M-100 762.73C58.9 772.77 59.9 752.8 202.86 752.8S362.66 830.31 505.71 830.31S661.83 808.49 808.57 808.49S967.16 822.9 1111.43 822.9S1263.22 777.36 1414.29 777.36S1566.72 752.45 1717.14 752.45S1873.14 831.51 2020 831.51S2178.68 764.71 2322.86 764.71L2020 1080 L-100 1080 Z;M-100 802.72C51.44 809 55.82 790.32 202.86 790.32S357.17 830.72 505.71 830.72S659.54 771.97 808.57 771.97S966.83 760.44 1111.43 760.44S1270.73 760.3 1414.29 760.3S1567.41 793.68 1717.14 793.68S1869.66 825.48 2020 825.48S2175.06 780.22 2322.86 780.22L2020 1080 L-100 1080 Z"></animate>
  <animateTransform attributeName="transform" type="translate" dur="19.999999999999996s" begin="0s" repeatCount="indefinite" values="0;10;0" calcMode="spline" keySplines="0.3 0 0.7 1;0.3 0 0.7 1"></animateTransform>
</path><path d="M-100 764.37C74.82 808.03 72.13 823.67 234.74 823.67S406.94 808 569.47 808S742.99 870.9 904.21 870.9S1079.83 752.65 1238.95 752.65S1409.13 874.79 1573.68 874.79S1746.29 758.33 1908.42 758.33S2076.28 851.21 2243.16 851.21L2020 1080 L-100 1080 Z" fill="#7c8189" stroke-width="0">
  <animate attributeName="d" dur="13.333333333333332s" repeatCount="indefinite" values="M-100 764.37C74.82 808.03 72.13 823.67 234.74 823.67S406.94 808 569.47 808S742.99 870.9 904.21 870.9S1079.83 752.65 1238.95 752.65S1409.13 874.79 1573.68 874.79S1746.29 758.33 1908.42 758.33S2076.28 851.21 2243.16 851.21L2020 1080 L-100 1080 Z;M-100 790.46C68.18 759.09 73.8 831.55 234.74 831.55S409.4 815.21 569.47 815.21S743.91 875.32 904.21 875.32S1073.46 805.1 1238.95 805.1S1407.15 754.37 1573.68 754.37S1749.47 754.9 1908.42 754.9S2077.59 859.27 2243.16 859.27L2020 1080 L-100 1080 Z;M-100 764.37C74.82 808.03 72.13 823.67 234.74 823.67S406.94 808 569.47 808S742.99 870.9 904.21 870.9S1079.83 752.65 1238.95 752.65S1409.13 874.79 1573.68 874.79S1746.29 758.33 1908.42 758.33S2076.28 851.21 2243.16 851.21L2020 1080 L-100 1080 Z"></animate>
  <animateTransform attributeName="transform" type="translate" dur="13.333333333333332s" begin="-4.444444444444444s" repeatCount="indefinite" values="0;10;0" calcMode="spline" keySplines="0.3 0 0.7 1;0.3 0 0.7 1"></animateTransform>
</path><path d="M-100 878.4C91.37 919.7 89.16 944.51 274.12 944.51S465.34 839.81 648.24 839.81S837.85 957.1 1022.35 957.1S1214.95 790.65 1396.47 790.65S1585.73 947.41 1770.59 947.41S1962.51 831.25 2144.71 831.25L2020 1080 L-100 1080 Z" fill="#848c98" stroke-width="0">
  <animate attributeName="d" dur="6.666666666666666s" repeatCount="indefinite" values="M-100 878.4C91.37 919.7 89.16 944.51 274.12 944.51S465.34 839.81 648.24 839.81S837.85 957.1 1022.35 957.1S1214.95 790.65 1396.47 790.65S1585.73 947.41 1770.59 947.41S1962.51 831.25 2144.71 831.25L2020 1080 L-100 1080 Z;M-100 802.69C87.18 766.47 92.17 899.45 274.12 899.45S467.46 820.89 648.24 820.89S841.64 896.13 1022.35 896.13S1210.75 757.16 1396.47 757.16S1584.67 911.8 1770.59 911.8S1960.35 795.35 2144.71 795.35L2020 1080 L-100 1080 Z;M-100 878.4C91.37 919.7 89.16 944.51 274.12 944.51S465.34 839.81 648.24 839.81S837.85 957.1 1022.35 957.1S1214.95 790.65 1396.47 790.65S1585.73 947.41 1770.59 947.41S1962.51 831.25 2144.71 831.25L2020 1080 L-100 1080 Z"></animate>
  <animateTransform attributeName="transform" type="translate" dur="6.666666666666666s" begin="-4.444444444444444s" repeatCount="indefinite" values="0;10;0" calcMode="spline" keySplines="0.3 0 0.7 1;0.3 0 0.7 1"></animateTransform>
</path></g>
</svg>