<?xml version="1.0" encoding="utf-8"?><svg xmlns="http://www.w3.org/2000/svg" xmlns:xlink="http://www.w3.org/1999/xlink" width="1920" height="967" preserveAspectRatio="xMidYMid" viewBox="0 0 1920 967" style="z-index:1;display:block;animation-play-state:paused" ><g transform="translate(960,483.5) scale(1,1) translate(-960,-483.5)" style="animation-play-state:paused" ><path d="M -100 580.88 C -64.52 575.12 -63.46 579.92 -31.61 579.92 S 2.92 584.89 36.77 584.89 S 71.83 578.5 105.16 578.5 S 140.09 571.75 173.55 571.75 S 208.26 584.49 241.94 584.49 S 276.99 584.26 310.32 584.26 S 344.56 570.89 378.71 570.89 S 415 566.75 447.1 566.75 S 483.03 582.85 515.48 582.85 S 549.85 579.13 583.87 579.13 S 618.77 566.51 652.26 566.51 S 686.63 577.1 720.65 577.1 S 757.02 564.53 789.03 564.53 S 823.77 573.38 857.42 573.38 S 893.67 560.87 925.81 560.87 S 961.12 577.13 994.19 577.13 S 1029.79 561.01 1062.58 561.01 S 1098.45 568.67 1130.97 568.67 S 1166.16 577.17 1199.35 577.17 S 1234.47 566.15 1267.74 566.15 S 1304.03 568.44 1336.13 568.44 S 1372.64 578.67 1404.52 578.67 S 1439.42 583.63 1472.9 583.63 S 1508.53 580.94 1541.29 580.94 S 1577.04 571.21 1609.68 571.21 S 1645.65 575.93 1678.06 575.93 S 1712.73 583.46 1746.45 583.46 S 1782.1 561.24 1814.84 561.24 S 1850.22 574.35 1883.23 574.35 S 1919.1 573.49 1951.61 573.49 S 1987.46 568.81 2020 568.81 S 2056.52 581.87 2088.39 581.87 L 2020 967 L -100 967 Z" fill="#0f3135" stroke-width="0" transform="matrix(1,0,0,1,0,0)" style="animation-play-state:paused" ></path>
<path d="M -100 585.61 C -62.83 599.49 -64.7 596.22 -29.8 596.22 S 5.54 596.62 40.4 596.62 S 76.69 597.95 110.6 597.95 S 147.89 595.28 180.79 595.28 S 216.09 610.01 250.99 610.01 S 286.32 592.44 321.19 592.44 S 358.48 588.19 391.39 588.19 S 428.9 595.39 461.59 595.39 S 498.8 602.13 531.79 602.13 S 567.61 607.66 601.99 607.66 S 639.06 611.71 672.19 611.71 S 707.42 607.41 742.38 607.41 S 779.89 595.59 812.58 595.59 S 848.96 606.23 882.78 606.23 S 919.63 596.77 952.98 596.77 S 988.59 607.55 1023.18 607.55 S 1060.54 587.63 1093.38 587.63 S 1129.83 590.21 1163.58 590.21 S 1200.16 599.94 1233.77 599.94 S 1270.92 596.61 1303.97 596.61 S 1340 608.62 1374.17 608.62 S 1411.07 587.82 1444.37 587.82 S 1481.74 608.86 1514.57 608.86 S 1551.21 607.55 1584.77 607.55 S 1622.03 613.71 1654.97 613.71 S 1690.65 593.41 1725.17 593.41 S 1760.97 610.97 1795.36 610.97 S 1832.03 603.88 1865.56 603.88 S 1900.94 602.65 1935.76 602.65 S 1972.11 587.13 2005.96 587.13 S 2041.55 604.38 2076.16 604.38 L 2020 967 L -100 967 Z" fill="#254346" stroke-width="0" transform="matrix(1,0,0,1,1.1340198516845703,0)" style="animation-play-state:paused" ></path>
<path d="M -100 620.32 C -61.96 628.67 -63.21 625.34 -27.89 625.34 S 9.6 609.33 44.22 609.33 S 81.11 642.31 116.33 642.31 S 152.52 620.04 188.44 620.04 S 225.14 627.12 260.54 627.12 S 298.46 626 332.65 626 S 368.87 632.79 404.76 632.79 S 440.86 611.7 476.87 611.7 S 514.99 620.1 548.98 620.1 S 585.73 623.67 621.09 623.67 S 657.48 609.23 693.2 609.23 S 731.14 625.87 765.31 625.87 S 802.9 622.18 837.41 622.18 S 874.87 619.05 909.52 619.05 S 946.85 611.46 981.63 611.46 S 1018.25 616.26 1053.74 616.26 S 1091.61 634.04 1125.85 634.04 S 1162.22 629.62 1197.96 629.62 S 1234.99 634.17 1270.07 634.17 S 1306.21 623.57 1342.18 623.57 S 1378.57 640.83 1414.29 640.83 S 1451.11 612.43 1486.39 612.43 S 1523.01 623 1558.5 623 S 1596.43 631.23 1630.61 631.23 S 1668.15 633.38 1702.72 633.38 S 1741.13 626.42 1774.83 626.42 S 1811.49 637.75 1846.94 637.75 S 1884.84 610.59 1919.05 610.59 S 1955.93 635.64 1991.16 635.64 S 2027.27 611.79 2063.27 611.79 L 2020 967 L -100 967 Z" fill="#3b5658" stroke-width="0" transform="matrix(1,0,0,1,3.5863144397735596,0)" style="animation-play-state:paused" ></path>
<path d="M -100 634.29 C -61.19 654.84 -60.64 660.19 -25.87 660.19 S 13.02 655.83 48.25 655.83 S 87.63 634.36 122.38 634.36 S 160.54 649.96 196.5 649.96 S 235.18 667.12 270.63 667.12 S 309.38 658.71 344.76 658.71 S 382.13 655.18 418.88 655.18 S 457.66 645.11 493.01 645.11 S 531.96 652.62 567.13 652.62 S 605.65 638.81 641.26 638.81 S 680 667.25 715.38 667.25 S 753.96 656.37 789.51 656.37 S 827.37 654.6 863.64 654.6 S 902.17 647.55 937.76 647.55 S 976.91 668.01 1011.89 668.01 S 1049.9 651.63 1086.01 651.63 S 1123.51 635.1 1160.14 635.1 S 1198.1 660.64 1234.27 660.64 S 1272.36 649.22 1308.39 649.22 S 1345.89 642.45 1382.52 642.45 S 1420.35 655.06 1456.64 655.06 S 1494.94 641.48 1530.77 641.48 S 1568.32 658.05 1604.9 658.05 S 1642.13 637.93 1679.02 637.93 S 1717.27 653.55 1753.15 653.55 S 1791.94 651.82 1827.27 651.82 S 1865.74 666.28 1901.4 666.28 S 1938.51 646.56 1975.52 646.56 S 2014.41 664.13 2049.65 664.13 L 2020 967 L -100 967 Z" fill="#51696b" stroke-width="0" transform="matrix(1,0,0,1,6.413685321807861,0)" style="animation-play-state:paused" ></path>
<path d="M -100 670.62 C -61.25 676.84 -59.49 686.91 -23.74 686.91 S 15.04 671.93 52.52 671.93 S 91.44 698.43 128.78 698.43 S 167.98 667.35 205.04 667.35 S 244.68 692.16 281.29 692.16 S 320.8 680.46 357.55 680.46 S 397.27 689.95 433.81 689.95 S 472.04 661.08 510.07 661.08 S 549.6 696.56 586.33 696.56 S 625.21 671.77 662.59 671.77 S 702.06 695.45 738.85 695.45 S 777.62 666.36 815.11 666.36 S 853.58 691.18 891.37 691.18 S 929.67 669.94 967.63 669.94 S 1007.93 698.21 1043.88 698.21 S 1083.4 659.64 1120.14 659.64 S 1158.77 696.28 1196.4 696.28 S 1235.9 666.72 1272.66 666.72 S 1313.05 677.76 1348.92 677.76 S 1387.69 662.92 1425.18 662.92 S 1464.27 691.54 1501.44 691.54 S 1540.42 674.1 1577.7 674.1 S 1616.98 687.99 1653.96 687.99 S 1693.17 663.97 1730.22 663.97 S 1768.4 680.76 1806.47 680.76 S 1846.88 657.66 1882.73 657.66 S 1920.95 692.12 1958.99 692.12 S 1997.18 671.71 2035.25 671.71 L 2020 967 L -100 967 Z" fill="#677d7f" stroke-width="0" transform="matrix(1,0,0,1,8.86598014831543,0)" style="animation-play-state:paused" ></path>
<path d="M -100 690.09 C -58.51 701.5 -59.24 726.06 -21.48 726.06 S 17.81 683.92 57.04 683.92 S 97.73 712 135.56 712 S 174.94 682.86 214.07 682.86 S 253.88 726.25 292.59 726.25 S 331.96 692.35 371.11 692.35 S 411.17 725.66 449.63 725.66 S 489.46 683.83 528.15 683.83 S 569.27 707.07 606.67 707.07 S 648 699.89 685.19 699.89 S 725.17 717.9 763.7 717.9 S 804.07 697.26 842.22 697.26 S 882.07 718.33 920.74 718.33 S 961.51 687.88 999.26 687.88 S 1040.43 729.21 1077.78 729.21 S 1119.16 697.7 1156.3 697.7 S 1195.89 718.5 1234.81 718.5 S 1274.52 689.23 1313.33 689.23 S 1352.67 682.29 1391.85 682.29 S 1433.02 700.09 1470.37 700.09 S 1510.23 724.44 1548.89 724.44 S 1588.83 681.89 1627.41 681.89 S 1666.75 709.5 1705.93 709.5 S 1747.03 696.42 1784.44 696.42 S 1824.63 720.3 1862.96 720.3 S 1903.37 688.43 1941.48 688.43 S 1982.9 707.13 2020 707.13 S 2059.52 686.01 2098.52 686.01 L 2020 967 L -100 967 Z" fill="#7e9193" stroke-width="0" transform="matrix(1,0,0,1,10,0)" style="animation-play-state:paused" ></path>
<path d="M -100 708.95 C -57.64 725.45 -57.2 742.5 -19.08 742.5 S 23.75 727.43 61.83 727.43 S 103.91 753.33 142.75 753.33 S 185.24 725.47 223.66 725.47 S 266.18 742.75 304.58 742.75 S 347.45 706.35 385.5 706.35 S 426.62 711.7 466.41 711.7 S 508.13 713.85 547.33 713.85 S 588.82 744.56 628.24 744.56 S 670.73 748.51 709.16 748.51 S 751.85 749.87 790.08 749.87 S 830.74 722.54 870.99 722.54 S 912.37 736.71 951.91 736.71 S 994.67 725.07 1032.82 725.07 S 1074.49 742.48 1113.74 742.48 S 1155.19 716.65 1194.66 716.65 S 1237.37 757.27 1275.57 757.27 S 1316.63 721.58 1356.49 721.58 S 1398.2 751.41 1437.4 751.41 S 1480.14 710.13 1518.32 710.13 S 1559.27 747.69 1599.24 747.69 S 1641.61 739.55 1680.15 739.55 S 1722.38 754.99 1761.07 754.99 S 1803.92 726.99 1841.98 726.99 S 1883.04 756.11 1922.9 756.11 S 1964.83 715.69 2003.82 715.69 S 2044.5 755.02 2084.73 755.02 L 2020 967 L -100 967 Z" fill="#95a6a7" stroke-width="0" transform="matrix(1,0,0,1,8.86598014831543,0)" style="animation-play-state:paused" ></path>
<path d="M -100 739.24 C -57.96 745.43 -57.11 770.42 -16.54 770.42 S 25.2 748.15 66.93 748.15 S 109.04 771.74 150.39 771.74 S 192.25 744.03 233.86 744.03 S 275.68 773.7 317.32 773.7 S 359.77 753.81 400.79 753.81 S 443.97 782.91 484.25 782.91 S 527.52 749.56 567.72 749.56 S 610.75 775.62 651.18 775.62 S 693.43 736.42 734.65 736.42 S 778.07 730.47 818.11 730.47 S 862.06 734.62 901.57 734.62 S 945.62 781.46 985.04 781.46 S 1027.05 734.89 1068.5 734.89 S 1111.04 784.04 1151.97 784.04 S 1193.96 739.17 1235.43 739.17 S 1278.53 741.87 1318.9 741.87 S 1362.59 744.2 1402.36 744.2 S 1445.29 782.11 1485.83 782.11 S 1529.45 743.29 1569.29 743.29 S 1611.11 784.54 1652.76 784.54 S 1695.56 737.14 1736.22 737.14 S 1780.35 782.12 1819.69 782.12 S 1861.94 746.29 1903.15 746.29 S 1946.92 764.9 1986.61 764.9 S 2029.65 752.52 2070.08 752.52 L 2020 967 L -100 967 Z" fill="#adbcbc" stroke-width="0" transform="matrix(1,0,0,1,6.413685321807861,0)" style="animation-play-state:paused" ></path>
<path d="M -100 763.26 C -54.85 763.7 -56.74 795.65 -13.82 795.65 S 31.61 769.39 72.36 769.39 S 116.64 815.95 158.54 815.95 S 203.12 809.77 244.72 809.77 S 289.68 802.01 330.89 802.01 S 375.03 769.23 417.07 769.23 S 460.87 800.8 503.25 800.8 S 547.67 765.29 589.43 765.29 S 634.27 805.95 675.61 805.95 S 719.22 763.54 761.79 763.54 S 805.99 800.02 847.97 800.02 S 893.03 770.07 934.15 770.07 S 979.09 761.34 1020.33 761.34 S 1065.74 767.34 1106.5 767.34 S 1150.78 814.64 1192.68 814.64 S 1238.07 766.99 1278.86 766.99 S 1322.48 775.58 1365.04 775.58 S 1409.59 771.4 1451.22 771.4 S 1496.12 811.34 1537.4 811.34 S 1582.48 815.34 1623.58 815.34 S 1667.01 806.55 1709.76 806.55 S 1754.32 766.88 1795.93 766.88 S 1841.21 815.65 1882.11 815.65 S 1926.28 760.86 1968.29 760.86 S 2011.77 765.16 2054.47 765.16 L 2020 967 L -100 967 Z" fill="#c6d2d2" stroke-width="0" transform="matrix(1,0,0,1,3.5863144397735596,0)" style="animation-play-state:paused" ></path>
<path d="M -100 784.41 C -54.83 782.71 -54.28 826.92 -10.92 826.92 S 34.91 779.74 78.15 779.74 S 125 844.87 167.23 844.87 S 213.88 795.62 256.3 795.62 S 301.24 838.22 345.38 838.22 S 392.03 826.8 434.45 826.8 S 481.24 844.44 523.53 844.44 S 569.35 791.34 612.61 791.34 S 659.17 824.82 701.68 824.82 S 748.49 797.55 790.76 797.55 S 836.17 836.69 879.83 836.69 S 926.21 784.24 968.91 784.24 S 1015.71 842.51 1057.98 842.51 S 1104.44 781.23 1147.06 781.23 S 1191.78 840.03 1236.13 840.03 S 1282.21 823.71 1325.21 823.71 S 1369.76 831.11 1414.29 831.11 S 1458.86 825.13 1503.36 825.13 S 1549.47 801.27 1592.44 801.27 S 1639.09 795.74 1681.51 795.74 S 1726.82 824.45 1770.59 824.45 S 1816.94 783.71 1859.66 783.71 S 1904.56 835.51 1948.74 835.51 S 1993.55 841.87 2037.82 841.87 L 2020 967 L -100 967 Z" fill="#dfe8e8" stroke-width="0" transform="matrix(1,0,0,1,1.1340198516845703,0)" style="animation-play-state:paused" ></path></g></svg>