<?xml version="1.0" encoding="utf-8"?>
<svg xmlns="http://www.w3.org/2000/svg" xmlns:xlink="http://www.w3.org/1999/xlink" style="margin: auto; background: none; display: block; z-index: 1; position: relative; shape-rendering: crispedges;" preserveAspectRatio="xMidYMid" viewBox="0 0 1920 1080">
<g transform="translate(960,540) scale(1,1) translate(-960,-540)"><path d="M-100 939.21C53.23 961.96 56.29 960.1 202.86 960.1S358.72 943.65 505.71 943.65S659.07 928.57 808.57 928.57S962.26 901.36 1111.43 901.36S1266.86 903.07 1414.29 903.07S1572.21 946.15 1717.14 946.15S1872.93 918.6 2020 918.6S2174.59 912.52 2322.86 912.52L2020 1080 L-100 1080 Z" fill="#2b59c3" stroke-width="0">
  <animate attributeName="d" dur="26.666666666666664s" repeatCount="indefinite" values="M-100 939.21C53.23 961.96 56.29 960.1 202.86 960.1S358.72 943.65 505.71 943.65S659.07 928.57 808.57 928.57S962.26 901.36 1111.43 901.36S1266.86 903.07 1414.29 903.07S1572.21 946.15 1717.14 946.15S1872.93 918.6 2020 918.6S2174.59 912.52 2322.86 912.52L2020 1080 L-100 1080 Z;M-100 929.44C57.35 942.91 55.93 905.79 202.86 905.79S355.44 916.16 505.71 916.16S661.58 963.31 808.57 963.31S961.59 914.34 1111.43 914.34S1268.49 925.09 1414.29 925.09S1569.67 944.48 1717.14 944.48S1870.24 946.91 2020 946.91S2175.49 930.5 2322.86 930.5L2020 1080 L-100 1080 Z;M-100 939.21C53.23 961.96 56.29 960.1 202.86 960.1S358.72 943.65 505.71 943.65S659.07 928.57 808.57 928.57S962.26 901.36 1111.43 901.36S1266.86 903.07 1414.29 903.07S1572.21 946.15 1717.14 946.15S1872.93 918.6 2020 918.6S2174.59 912.52 2322.86 912.52L2020 1080 L-100 1080 Z"></animate>
  <animateTransform attributeName="transform" type="translate" dur="26.666666666666664s" begin="0s" repeatCount="indefinite" values="0;10;0" calcMode="spline" keySplines="0.3 0 0.7 1;0.3 0 0.7 1"></animateTransform>
</path><path d="M-100 939.41C64.58 954.9 69.58 995.01 226.15 995.01S395.94 941.71 552.31 941.71S719.7 982.8 878.46 982.8S1042.01 931.45 1204.62 931.45S1368.15 965.04 1530.77 965.04S1695.71 924.07 1856.92 924.07S2020.79 976.78 2183.08 976.78L2020 1080 L-100 1080 Z" fill="#2d74cc" stroke-width="0">
  <animate attributeName="d" dur="19.999999999999996s" repeatCount="indefinite" values="M-100 939.41C64.58 954.9 69.58 995.01 226.15 995.01S395.94 941.71 552.31 941.71S719.7 982.8 878.46 982.8S1042.01 931.45 1204.62 931.45S1368.15 965.04 1530.77 965.04S1695.71 924.07 1856.92 924.07S2020.79 976.78 2183.08 976.78L2020 1080 L-100 1080 Z;M-100 955.96C67.4 925.76 64.28 977.88 226.15 977.88S395.63 939.31 552.31 939.31S721.77 993.32 878.46 993.32S1048.14 922.48 1204.62 922.48S1368.96 998.65 1530.77 998.65S1699.24 939.32 1856.92 939.32S2026.29 1004.02 2183.08 1004.02L2020 1080 L-100 1080 Z;M-100 939.41C64.58 954.9 69.58 995.01 226.15 995.01S395.94 941.71 552.31 941.71S719.7 982.8 878.46 982.8S1042.01 931.45 1204.62 931.45S1368.15 965.04 1530.77 965.04S1695.71 924.07 1856.92 924.07S2020.79 976.78 2183.08 976.78L2020 1080 L-100 1080 Z"></animate>
  <animateTransform attributeName="transform" type="translate" dur="19.999999999999996s" begin="-4.999999999999999s" repeatCount="indefinite" values="0;10;0" calcMode="spline" keySplines="0.3 0 0.7 1;0.3 0 0.7 1"></animateTransform>
</path><path d="M-100 950.29C80.3 934.28 78.55 940.99 253.33 940.99S433.46 1037.54 606.67 1037.54S786.25 1025.97 960 1025.97S1141.65 942.25 1313.33 942.25S1493.96 988.76 1666.67 988.76S1844.41 901.88 2020 901.88S2202.1 947.26 2373.33 947.26L2020 1080 L-100 1080 Z" fill="#428dd2" stroke-width="0">
  <animate attributeName="d" dur="13.333333333333332s" repeatCount="indefinite" values="M-100 950.29C80.3 934.28 78.55 940.99 253.33 940.99S433.46 1037.54 606.67 1037.54S786.25 1025.97 960 1025.97S1141.65 942.25 1313.33 942.25S1493.96 988.76 1666.67 988.76S1844.41 901.88 2020 901.88S2202.1 947.26 2373.33 947.26L2020 1080 L-100 1080 Z;M-100 950.25C83.35 924.56 81.06 1024.05 253.33 1024.05S431.87 1001.81 606.67 1001.81S786.29 1038.85 960 1038.85S1142.02 902.5 1313.33 902.5S1491.21 1016.04 1666.67 1016.04S1847.15 1016.51 2020 1016.51S2198.15 986.36 2373.33 986.36L2020 1080 L-100 1080 Z;M-100 950.29C80.3 934.28 78.55 940.99 253.33 940.99S433.46 1037.54 606.67 1037.54S786.25 1025.97 960 1025.97S1141.65 942.25 1313.33 942.25S1493.96 988.76 1666.67 988.76S1844.41 901.88 2020 901.88S2202.1 947.26 2373.33 947.26L2020 1080 L-100 1080 Z"></animate>
  <animateTransform attributeName="transform" type="translate" dur="13.333333333333332s" begin="-6.666666666666666s" repeatCount="indefinite" values="0;10;0" calcMode="spline" keySplines="0.3 0 0.7 1;0.3 0 0.7 1"></animateTransform>
</path><path d="M-100 923.66C99.01 943.13 97.85 1056.46 285.45 1056.46S483.67 911.53 670.91 911.53S868.6 1080.09 1056.36 1080.09S1252.36 928.86 1441.82 928.86S1638.37 1029.28 1827.27 1029.28S2020.02 911.17 2212.73 911.17L2020 1080 L-100 1080 Z" fill="#62a5d5" stroke-width="0">
  <animate attributeName="d" dur="6.666666666666666s" repeatCount="indefinite" values="M-100 923.66C99.01 943.13 97.85 1056.46 285.45 1056.46S483.67 911.53 670.91 911.53S868.6 1080.09 1056.36 1080.09S1252.36 928.86 1441.82 928.86S1638.37 1029.28 1827.27 1029.28S2020.02 911.17 2212.73 911.17L2020 1080 L-100 1080 Z;M-100 920.56C94.85 956.41 97.38 1078.66 285.45 1078.66S483.97 933.75 670.91 933.75S866.5 960.96 1056.36 960.96S1250.45 1047.37 1441.82 1047.37S1636.58 1045.27 1827.27 1045.27S2025.31 962 2212.73 962L2020 1080 L-100 1080 Z;M-100 923.66C99.01 943.13 97.85 1056.46 285.45 1056.46S483.67 911.53 670.91 911.53S868.6 1080.09 1056.36 1080.09S1252.36 928.86 1441.82 928.86S1638.37 1029.28 1827.27 1029.28S2020.02 911.17 2212.73 911.17L2020 1080 L-100 1080 Z"></animate>
  <animateTransform attributeName="transform" type="translate" dur="6.666666666666666s" begin="-5s" repeatCount="indefinite" values="0;10;0" calcMode="spline" keySplines="0.3 0 0.7 1;0.3 0 0.7 1"></animateTransform>
</path></g>
</svg>