<?xml version="1.0" encoding="utf-8"?><svg xmlns="http://www.w3.org/2000/svg" xmlns:xlink="http://www.w3.org/1999/xlink" width="2560" height="1326" preserveAspectRatio="xMidYMid" viewBox="0 0 2560 1326" style="z-index:1;display:block;animation-play-state:paused" ><g transform="translate(1280,663) scale(1,1) translate(-1280,-663)" style="animation-play-state:paused" ><linearGradient id="lg-0.83811265132856" x1="0" x2="1" y1="0" y2="0" style="animation-play-state:paused" ><stop stop-color="#008fd4" offset="0" style="animation-play-state:paused" ></stop>

  
<stop stop-color="#001f2d" offset="1" style="animation-play-state:paused" ></stop></linearGradient>
<path d="M 0 0 L 0 1104.29 Q 256 1018.78 512 979.232 T 1024 947.59 T 1536 749.294 T 2048 812.91 T 2560 533.287 L 2560 0 Z" fill="url(#lg-0.83811265132856)" opacity="0.4" style="opacity:0.4;animation-play-state:paused" ></path>
<path d="M 0 0 L 0 1275.57 Q 256 1089.46 512 1055.53 T 1024 874.543 T 1536 692.977 T 2048 573.503 T 2560 557.162 L 2560 0 Z" fill="url(#lg-0.83811265132856)" opacity="0.4" style="opacity:0.4;animation-play-state:paused" ></path>
<path d="M 0 0 L 0 1173.44 Q 256 1111.03 512 1074.09 T 1024 986.139 T 1536 774.736 T 2048 619.732 T 2560 450.509 L 2560 0 Z" fill="url(#lg-0.83811265132856)" opacity="0.4" style="opacity:0.4;animation-play-state:paused" ></path>
<path d="M 0 0 L 0 1226.83 Q 256 1073.33 512 1038.57 T 1024 973.817 T 1536 809.057 T 2048 624.429 T 2560 562.461 L 2560 0 Z" fill="url(#lg-0.83811265132856)" opacity="0.4" style="opacity:0.4;animation-play-state:paused" ></path>
<path d="M 0 0 L 0 1215.64 Q 256 1097.99 512 1071.03 T 1024 861.419 T 1536 704.164 T 2048 652.682 T 2560 500.125 L 2560 0 Z" fill="url(#lg-0.83811265132856)" opacity="0.4" style="opacity:0.4;animation-play-state:paused" ></path></g></svg>